HIERARCHY
ROOT Hips
{
	OFFSET 0.000000 0.000000 0.000000
	CHANNELS 6 Xposition Yposition Zposition Zrotation Yrotation Xrotation 
	JOINT LHipJoint
	{
		OFFSET 0.000000 0.000000 0.000000
		CHANNELS 3 Zrotation Yrotation Xrotation
		JOINT LeftUpLeg
		{
			OFFSET 1.363060 -1.794630 0.839290
			CHANNELS 3 Zrotation Yrotation Xrotation
			JOINT LeftLeg
			{
				OFFSET 2.448110 -6.726130 0.000000
				CHANNELS 3 Zrotation Yrotation Xrotation
				JOINT LeftFoot
				{
					OFFSET 2.562200 -7.039590 0.000000
					CHANNELS 3 Zrotation Yrotation Xrotation
					JOINT LeftToeBase
					{
						OFFSET 0.157640 -0.433110 2.322550
						CHANNELS 3 Zrotation Yrotation Xrotation
						End Site
						{
							OFFSET 0.000000 0.000000 0.000000
						}
					}
				}
			}
		}
	}
	JOINT RHipJoint
	{
		OFFSET 0.000000 0.000000 0.000000
		CHANNELS 3 Zrotation Yrotation Xrotation
		JOINT RightUpLeg
		{
			OFFSET -1.305520 -1.794630 0.839290
			CHANNELS 3 Zrotation Yrotation Xrotation
			JOINT RightLeg
			{
				OFFSET -2.542530 -6.985550 0.000000
				CHANNELS 3 Zrotation Yrotation Xrotation
				JOINT RightFoot
				{
					OFFSET -2.568260 -7.056230 0.000000
					CHANNELS 3 Zrotation Yrotation Xrotation
					JOINT RightToeBase
					{
						OFFSET -0.164730 -0.452590 2.363150
						CHANNELS 3 Zrotation Yrotation Xrotation
						End Site
						{
							OFFSET 0.000000 0.000000 0.000000
						}
					}
				}
			}
		}
	}
	JOINT LowerBack
	{
		OFFSET 0.000000 0.000000 0.000000
		CHANNELS 3 Zrotation Yrotation Xrotation
		JOINT Spine
		{
			OFFSET 0.028270 2.035590 -0.193380
			CHANNELS 3 Zrotation Yrotation Xrotation
			JOINT Spine1
			{
				OFFSET 0.056720 2.048850 -0.042750
				CHANNELS 3 Zrotation Yrotation Xrotation
				JOINT Neck
				{
					OFFSET 0.000000 0.000000 0.000000
					CHANNELS 3 Zrotation Yrotation Xrotation
					JOINT Neck1
					{
						OFFSET -0.054170 1.746240 0.172020
						CHANNELS 3 Zrotation Yrotation Xrotation
						JOINT Head
						{
							OFFSET 0.104070 1.761360 -0.123970
							CHANNELS 3 Zrotation Yrotation Xrotation
							End Site
							{
								OFFSET 0.000000 0.000000 0.000000
							}
						}
					}
				}
				JOINT LeftShoulder
				{
					OFFSET 0.000000 0.000000 0.000000
					CHANNELS 3 Zrotation Yrotation Xrotation
					JOINT LeftArm
					{
						OFFSET 3.362410 1.200890 -0.311210
						CHANNELS 3 Zrotation Yrotation Xrotation
						JOINT LeftForeArm
						{
							OFFSET 4.983000 -0.000000 -0.000000
							CHANNELS 3 Zrotation Yrotation Xrotation
							JOINT LeftHand
							{
								OFFSET 3.483560 -0.000000 -0.000000
								CHANNELS 3 Zrotation Yrotation Xrotation
								JOINT LeftFingerBase
								{
									OFFSET 0.000000 0.000000 0.000000
									CHANNELS 3 Zrotation Yrotation Xrotation
									JOINT LeftHandIndex1
									{
										OFFSET 0.715260 -0.000000 -0.000000
										CHANNELS 3 Zrotation Yrotation Xrotation
										End Site
										{
											OFFSET 0.000000 0.000000 0.000000
										}
									}
								}
								JOINT LThumb
								{
									OFFSET 0.000000 0.000000 0.000000
									CHANNELS 3 Zrotation Yrotation Xrotation
									End Site
									{
										OFFSET 0.000000 0.000000 0.000000
									}
								}
							}
						}
					}
				}
				JOINT RightShoulder
				{
					OFFSET 0.000000 0.000000 0.000000
					CHANNELS 3 Zrotation Yrotation Xrotation
					JOINT RightArm
					{
						OFFSET -3.136600 1.374050 -0.404650
						CHANNELS 3 Zrotation Yrotation Xrotation
						JOINT RightForeArm
						{
							OFFSET -5.241900 -0.000000 -0.000000
							CHANNELS 3 Zrotation Yrotation Xrotation
							JOINT RightHand
							{
								OFFSET -3.444170 -0.000000 -0.000000
								CHANNELS 3 Zrotation Yrotation Xrotation
								JOINT RightFingerBase
								{
									OFFSET 0.000000 0.000000 0.000000
									CHANNELS 3 Zrotation Yrotation Xrotation
									JOINT RightHandIndex1
									{
										OFFSET -0.622530 -0.000000 -0.000000
										CHANNELS 3 Zrotation Yrotation Xrotation
										End Site
										{
											OFFSET 0.000000 0.000000 0.000000
										}
									}
								}
								JOINT RThumb
								{
									OFFSET 0.000000 0.000000 0.000000
									CHANNELS 3 Zrotation Yrotation Xrotation
									End Site
									{
										OFFSET 0.000000 0.000000 0.000000
									}
								}
							}
						}
					}
				}
			}
		}
	}
}
MOTION
Frames: 4
Frame Time: 0.008333
0.597767 15.377928 -29.905706 -54.211311 -80.630883 72.014154 10.312621 11.875837 -2.714882 -30.826749 -8.681411 -12.276168 8.211343 11.507961 63.180168 6.069426 15.356827 42.009602 81.088885 -32.006964 113.154487 6.198394 -28.906200 14.070664 26.861201 26.466449 -55.736981 123.752263 -28.348709 171.359360 -120.302769 -40.397587 158.916047 87.214429 -16.719097 -85.264358 -15.843424 0.484060 0.941820 6.083900 0.121865 -4.849533 8.467722 -3.568461 15.761307 -0.793022 3.813410 -21.403307 4.584953 4.009307 17.294642 -11.477382 16.134636 -0.492194 18.145210 2.895726 -0.061680 -82.166438 -47.895125 41.199170 58.774871 -69.940740 4.062333 10.794045 -35.615767 1.502924 0.000002 -0.000001 0.000002 0.000000 0.000000 -0.000000 0.000000 0.000000 -0.000000 -4.367796 -8.913841 4.811185 70.708017 17.262782 11.590885 18.962607 71.984148 52.779939 -29.321638 15.949435 -2.258245 -0.000005 0.000004 -0.000002 -0.000000 0.000000 -0.000000 -0.000000 0.000000 0.000000 
0.357673 15.259309 -29.886637 -54.543080 -79.101254 72.118807 12.095598 11.746706 -3.218879 -31.510561 -9.629291 -12.650442 9.706038 12.535623 66.492985 6.008598 14.943179 41.244445 74.927471 -34.494816 114.007977 2.927991 -26.723632 14.912788 27.030456 28.526522 -53.406191 125.696411 -32.121398 170.193677 -116.342657 -38.290199 164.988534 89.801655 -19.253314 -86.157157 -14.190979 0.353838 0.740243 5.713156 0.675432 -4.717168 8.567222 -3.409263 15.906081 -1.091345 3.841980 -21.420144 4.628049 4.056241 16.914035 -11.780598 15.832817 -1.532836 18.644530 3.072953 -0.359750 -82.027544 -47.064867 41.508395 59.458002 -69.915121 3.414667 10.461313 -35.538183 1.611236 0.000002 -0.000001 0.000002 0.000000 -0.000000 0.000000 0.000000 0.000000 0.000000 -5.022113 -9.315777 5.144537 70.948347 19.588399 10.359445 19.276298 69.899584 50.467243 -22.917083 17.406302 -1.416382 -0.000005 0.000004 -0.000002 -0.000000 -0.000000 -0.000000 0.000000 -0.000000 0.000000 
0.130636 15.167117 -29.862462 -54.590754 -77.149821 71.262901 13.462093 11.504538 -3.823719 -31.389919 -10.046882 -12.547982 11.912580 13.285817 69.624436 5.583596 14.274401 40.799105 74.061037 -35.505838 115.021426 -0.402724 -23.580068 14.583412 28.084444 29.557275 -49.061639 128.035397 -35.295460 169.247766 -111.164809 -37.958519 170.974241 94.077557 -22.903989 -87.863240 -12.269741 0.164009 1.497076 5.522336 1.043843 -4.685605 8.729390 -3.483249 16.664006 -1.381229 3.756421 -22.110485 4.488767 3.993735 16.598824 -12.580060 15.319176 -1.240793 18.557571 4.011813 -0.567096 -81.854221 -46.945241 40.923751 58.080180 -70.739281 5.664686 12.325186 -35.858581 0.997079 0.000002 -0.000001 0.000002 0.000000 0.000000 -0.000000 -0.000000 0.000000 0.000000 -5.291104 -9.309452 5.065853 70.661823 22.304907 8.949685 19.288875 67.760915 50.012347 -21.855966 17.457778 -1.220706 -0.000005 0.000004 -0.000002 -0.000000 0.000000 -0.000000 -0.000000 0.000000 -0.000000 
-0.095030 15.096096 -29.835135 -54.683709 -77.006916 70.094151 13.165701 11.504698 -3.402612 -30.690511 -10.872072 -13.715403 13.310852 14.258812 72.987943 4.735378 13.056512 40.540753 71.745374 -36.335147 115.457178 0.278387 -24.057436 13.682944 26.819815 29.921236 -49.663545 132.657678 -40.612755 161.790937 -107.913196 -35.690288 174.855236 96.730901 -22.368115 -89.936832 -12.511352 -0.049680 2.243143 5.515545 1.261585 -4.484018 8.827891 -3.438735 17.593540 -1.228157 3.769399 -22.537707 4.347764 3.964077 16.186793 -13.146875 15.116230 -0.552082 18.591026 5.478402 -0.607282 -82.187403 -46.014017 40.593655 56.406465 -71.230443 7.190047 12.488704 -35.800845 0.939473 0.000002 -0.000001 0.000002 0.000000 0.000000 0.000000 -0.000000 0.000000 0.000000 -5.408252 -8.588250 5.364271 70.341795 25.217862 8.020593 19.328428 67.140324 53.165363 -26.500966 18.029889 -2.070072 -0.000005 0.000004 -0.000002 -0.000000 0.000000 0.000000 -0.000000 0.000000 -0.000000 
